<?xml version="1.0" standalone="no"?>
<!DOCTYPE svg PUBLIC "-//W3C//DTD SVG 20010904//EN"
 "http://www.w3.org/TR/2001/REC-SVG-20010904/DTD/svg10.dtd">
<svg version="1.0" xmlns="http://www.w3.org/2000/svg"
 width="740.000000pt" height="740.000000pt" viewBox="0 0 740.000000 740.000000"
 preserveAspectRatio="xMidYMid meet">

<g transform="translate(0.000000,740.000000) scale(0.100000,-0.100000)"
fill="#000000" stroke="none">
<path d="M1554 7139 c-162 -12 -302 -51 -467 -129 -74 -35 -98 -61 -144 -155
-87 -175 -120 -302 -133 -508 -13 -213 -13 -5235 0 -5352 6 -49 19 -126 30
-170 25 -96 117 -288 160 -332 37 -38 198 -122 292 -153 161 -52 116 -50 1843
-59 1807 -9 2568 -2 2680 23 137 32 255 81 349 145 84 58 178 243 220 431 19
88 21 125 21 530 0 379 -2 446 -18 523 -72 353 -264 552 -639 661 -156 45
-220 47 -1258 44 l-975 -3 0 1790 c0 1900 0 1887 -47 2085 -36 150 -115 308
-200 401 -114 125 -299 206 -519 229 -115 11 -1040 11 -1195 -1z m1336 -128
c108 -15 246 -42 260 -51 17 -10 2 -33 -17 -26 -8 3 -11 1 -8 -4 8 -12 -74
-102 -86 -94 -5 3 -8 2 -7 -3 5 -16 -24 -54 -37 -49 -9 3 -12 0 -9 -8 3 -8 0
-17 -7 -22 -8 -5 -10 -3 -4 7 5 8 4 11 -1 6 -5 -5 -9 -16 -9 -25 0 -10 -6 -16
-15 -14 -8 2 -12 0 -8 -3 8 -8 -8 -45 -20 -45 -4 0 -14 10 -22 23 -13 19 -21
21 -60 16 l-45 -6 46 -1 c27 -1 49 -7 52 -14 3 -10 -18 -13 -87 -13 -50 0
-387 -2 -750 -4 l-659 -2 -28 43 c-30 44 -37 64 -19 53 6 -3 7 1 3 10 -4 11
-8 13 -13 5 -4 -7 -13 -1 -25 17 -10 15 -27 36 -37 47 -10 11 -16 26 -13 34 2
7 1 11 -4 8 -9 -6 -81 68 -81 83 0 18 132 34 330 41 287 11 1289 4 1380 -9z
m-1570 -1691 c6 -184 15 -488 21 -675 6 -187 14 -457 19 -600 5 -143 16 -478
24 -745 9 -267 20 -604 25 -750 6 -146 10 -364 10 -485 0 -121 5 -299 11 -395
5 -96 10 -241 10 -321 l0 -145 -35 -58 c-37 -61 -114 -152 -262 -309 -51 -54
-93 -102 -93 -107 0 -6 -4 -10 -9 -10 -4 0 -11 30 -14 67 -12 126 -38 2801
-33 3311 7 624 6 609 40 762 15 69 29 168 32 220 4 54 14 118 25 148 10 29 19
62 19 74 0 21 17 100 45 208 8 30 16 78 19 107 3 28 14 69 24 90 22 43 64 185
84 283 15 73 12 124 38 -670z m1774 -461 c14 -7 28 -19 31 -28 9 -23 -30 -51
-71 -51 -33 0 -34 1 -34 38 0 21 3 42 7 45 10 10 39 8 67 -4z m56 -173 l35
-11 3 -985 c1 -566 -2 -1034 -7 -1100 -10 -122 -28 -178 -65 -213 -25 -23 -60
-123 -54 -155 3 -22 -28 -62 -48 -62 -16 0 -29 95 -20 147 17 102 24 494 25
1399 1 545 4 993 7 996 7 8 80 -2 124 -16z m36 -2283 c-22 -21 -47 -51 -58
-68 -12 -21 -18 -25 -18 -12 0 18 89 117 105 117 5 0 -8 -17 -29 -37z m2619
-32 c118 -19 144 -29 151 -56 5 -20 -4 -36 -50 -86 -31 -35 -56 -66 -56 -71 0
-5 -4 -7 -9 -3 -5 3 -12 1 -16 -5 -3 -5 -21 -9 -38 -9 l-32 1 30 8 30 8 -36 1
c-24 1 -39 -4 -43 -14 -4 -13 -34 -15 -183 -15 -126 0 -174 3 -166 11 7 7 63
9 161 7 83 -2 145 0 139 4 -7 4 -66 9 -132 10 l-120 2 85 6 c84 6 84 6 21 8
-36 1 -105 -3 -153 -9 -85 -11 -102 -22 -48 -32 14 -2 -3 -5 -37 -6 -34 0 -63
3 -65 8 -5 13 -68 25 -68 12 0 -7 -27 -11 -71 -11 -38 0 -114 -5 -166 -12 -59
-7 -98 -8 -100 -2 -4 13 -1487 9 -1586 -5 -97 -14 -107 -14 -107 0 0 6 -6 17
-14 24 -12 12 -15 12 -20 -1 -3 -8 -2 -12 3 -9 5 3 12 1 15 -4 9 -13 -19 -32
-38 -25 -13 5 -7 17 31 65 46 60 60 72 49 44 -14 -38 100 3 139 50 25 29 109
67 181 80 43 9 81 19 84 24 3 4 12 11 20 14 29 11 2141 0 2215 -12z m352 -317
c-5 -164 -28 -567 -33 -573 -2 -3 -14 5 -27 17 -17 16 -46 23 -124 33 l-103
13 0 70 c0 65 22 298 35 373 4 23 16 38 43 55 67 41 147 105 171 138 14 20 27
28 33 22 5 -5 7 -68 5 -148z"/>
<path d="M3055 6869 c-4 -6 -5 -12 -2 -15 2 -3 7 2 10 11 7 17 1 20 -8 4z"/>
<path d="M1317 6823 c3 -7 9 -13 13 -13 4 0 10 6 13 13 3 7 -3 13 -13 13 -10
0 -16 -6 -13 -13z"/>
<path d="M2975 6820 c-10 -11 -14 -20 -9 -20 5 0 15 9 22 20 7 11 11 20 9 20
-2 0 -12 -9 -22 -20z"/>
<path d="M1426 6747 c3 -10 9 -15 12 -12 3 3 0 11 -7 18 -10 9 -11 8 -5 -6z"/>
<path d="M2923 6748 c-23 -11 -31 -28 -14 -28 5 0 11 -6 14 -12 2 -7 3 -4 1 6
-2 11 5 25 14 32 20 16 15 16 -15 2z"/>
<path d="M1858 6733 c12 -2 32 -2 45 0 12 2 2 4 -23 4 -25 0 -35 -2 -22 -4z"/>
<path d="M2278 6733 c23 -2 61 -2 85 0 23 2 4 4 -43 4 -47 0 -66 -2 -42 -4z"/>
<path d="M1390 6711 c11 -22 13 -23 22 -7 5 10 7 20 4 23 -3 4 -6 1 -6 -7 0
-10 -3 -10 -17 1 -15 13 -15 12 -3 -10z"/>
<path d="M2640 6720 c0 -5 18 -10 40 -10 22 0 40 5 40 10 0 6 -18 10 -40 10
-22 0 -40 -4 -40 -10z"/>
<path d="M1858 6703 c12 -2 32 -2 45 0 12 2 2 4 -23 4 -25 0 -35 -2 -22 -4z"/>
<path d="M2158 6703 c45 -2 119 -2 165 0 45 1 8 3 -83 3 -91 0 -128 -2 -82 -3z"/>
<path d="M2498 6703 c12 -2 32 -2 45 0 12 2 2 4 -23 4 -25 0 -35 -2 -22 -4z"/>
<path d="M3330 2249 c0 -5 5 -7 10 -4 6 3 10 8 10 11 0 2 -4 4 -10 4 -5 0 -10
-5 -10 -11z"/>
<path d="M5890 2250 c-8 -5 -12 -12 -9 -15 4 -3 12 1 19 10 14 17 11 19 -10 5z"/>
<path d="M5850 2233 c0 -4 5 -15 10 -23 8 -13 10 -13 10 2 0 9 -4 20 -10 23
-5 3 -10 3 -10 -2z"/>
<path d="M3260 2216 c0 -2 8 -10 18 -17 15 -13 16 -12 3 4 -13 16 -21 21 -21
13z"/>
<path d="M5033 2202 c-6 -4 31 -7 82 -7 51 0 91 3 88 8 -6 9 -154 9 -170 -1z"/>
<path d="M5840 2195 c0 -12 -22 -15 -117 -18 l-118 -3 123 -2 c116 -2 122 -1
122 18 0 11 -2 20 -5 20 -3 0 -5 -7 -5 -15z"/>
<path d="M3445 2191 c-6 -5 -28 -12 -50 -14 -22 -2 -3 -4 43 -3 81 0 104 8 60
20 -32 8 -43 7 -53 -3z"/>
<path d="M3565 2191 c-37 -6 -35 -7 33 -15 41 -4 76 -5 80 -2 3 3 -12 6 -34 6
-29 0 -35 3 -24 10 18 11 12 11 -55 1z"/>
<path d="M3729 2189 c41 -5 87 -5 103 -1 18 4 -9 7 -75 8 l-102 1 74 -8z"/>
<path d="M3948 2193 c6 -2 18 -2 25 0 6 3 1 5 -13 5 -14 0 -19 -2 -12 -5z"/>
<path d="M4285 2190 c28 -4 65 -10 83 -14 18 -5 32 -4 32 2 0 5 -28 12 -61 16
-81 8 -118 6 -54 -4z"/>
<path d="M5288 2193 c6 -2 18 -2 25 0 6 3 1 5 -13 5 -14 0 -19 -2 -12 -5z"/>
<path d="M5378 2193 c12 -2 30 -2 40 0 9 3 -1 5 -23 4 -22 0 -30 -2 -17 -4z"/>
<path d="M5688 2193 c6 -2 18 -2 25 0 6 3 1 5 -13 5 -14 0 -19 -2 -12 -5z"/>
<path d="M3305 2181 c3 -5 -3 -12 -12 -15 -10 -2 -5 -4 11 -3 34 2 49 27 16
27 -12 0 -19 -4 -15 -9z"/>
<path d="M4000 2180 l-85 -6 123 -2 c76 -1 122 2 122 8 0 10 -19 10 -160 0z"/>
<path d="M4868 2182 c-10 -2 -18 -10 -18 -18 0 -8 8 -15 18 -16 36 -3 114 -4
103 0 -20 7 -11 21 17 25 21 3 19 4 -11 6 -23 0 -36 -3 -32 -9 3 -5 0 -10 -7
-10 -7 0 -23 -3 -35 -6 -13 -4 -23 -2 -23 4 0 6 8 12 18 14 14 3 14 5 2 9 -8
3 -23 4 -32 1z"/>
<path d="M3845 2170 c-4 -7 -54 -10 -131 -9 -69 1 -128 -2 -131 -5 -7 -7 20
-8 246 -7 166 0 240 10 95 12 -61 1 -71 3 -44 9 l35 7 -32 2 c-17 0 -35 -4
-38 -9z"/>
<path d="M4658 2173 c12 -2 32 -2 45 0 12 2 2 4 -23 4 -25 0 -35 -2 -22 -4z"/>
<path d="M5053 2173 c9 -2 23 -2 30 0 6 3 -1 5 -18 5 -16 0 -22 -2 -12 -5z"/>
<path d="M5188 2173 c17 -2 47 -2 65 0 17 2 3 4 -33 4 -36 0 -50 -2 -32 -4z"/>
<path d="M5323 2173 c9 -2 23 -2 30 0 6 3 -1 5 -18 5 -16 0 -22 -2 -12 -5z"/>
<path d="M3450 2159 c-41 -4 -83 -5 -94 -2 -12 3 -16 1 -12 -6 9 -15 199 -7
204 8 2 6 -2 10 -10 10 -7 -1 -47 -5 -88 -10z"/>
<path d="M4215 2161 l-190 -6 145 -5 c80 -3 255 -3 390 0 185 4 210 6 104 8
-78 1 -168 4 -200 5 -32 2 -144 1 -249 -2z"/>
<path d="M5043 2153 c15 -2 39 -2 55 0 15 2 2 4 -28 4 -30 0 -43 -2 -27 -4z"/>
<path d="M3180 2129 c0 -5 5 -7 10 -4 6 3 10 8 10 11 0 2 -4 4 -10 4 -5 0 -10
-5 -10 -11z"/>
<path d="M3100 2120 c-9 -6 -10 -10 -3 -10 6 0 15 5 18 10 8 12 4 12 -15 0z"/>
</g>
</svg>
