<?xml version="1.0" standalone="no"?>
<!DOCTYPE svg PUBLIC "-//W3C//DTD SVG 20010904//EN"
 "http://www.w3.org/TR/2001/REC-SVG-20010904/DTD/svg10.dtd">
<svg version="1.0" xmlns="http://www.w3.org/2000/svg"
 width="368.000000pt" height="352.000000pt" viewBox="0 0 368.000000 352.000000"
 preserveAspectRatio="xMidYMid meet">

<g transform="translate(0.000000,352.000000) scale(0.100000,-0.100000)"
fill="#000000" stroke="none">
<path d="M1390 2943 c-14 -2 -36 -12 -50 -23 l-25 -19 0 -1078 c0 -1042 1
-1079 19 -1106 39 -58 25 -57 635 -57 l561 0 17 27 c15 23 18 50 18 165 0 201
41 182 -415 186 l-370 3 0 934 0 934 -32 18 c-27 14 -61 18 -183 19 -82 1
-161 0 -175 -3z"/>
</g>
</svg>
